<svg width="18" height="18" fill="none" xmlns="http://www.w3.org/2000/svg"><path fill-rule="evenodd" clip-rule="evenodd" d="M1.31 1.49a.67.67 0 100 1.33h2.06l.54 2.7.01.05 1.1 5.44a1.97 1.97 0 001.96 1.6h6.32a1.97 1.97 0 001.96-1.6l1.05-5.47a.67.67 0 00-.66-.8H5.12l-.55-2.71a.67.67 0 00-.65-.54h-2.6zm5.01 9.26L5.4 6.08h9.46l-.9 4.68a.64.64 0 01-.63.5H6.96a.64.64 0 01-.64-.5zM5.21 15.2a1.32 1.32 0 112.64 0 1.32 1.32 0 01-2.64 0zm7.17 0a1.32 1.32 0 112.64 0 1.32 1.32 0 01-2.64 0z" fill="#2D3440"/></svg>