<svg width="16" height="16" fill="none" xmlns="http://www.w3.org/2000/svg"><g clip-path="url(#clip0_1244:350)"><path fill-rule="evenodd" clip-rule="evenodd" d="M2.3 1.33a.96.96 0 00-.97.97v11.4a.96.96 0 00.97.96h11.4a.96.96 0 00.97-1V2.3a.91.91 0 00-.29-.68 1 1 0 00-.28-.23.97.97 0 00-.4-.06H2.3zm13.54 13.21A2.3 2.3 0 0113.7 16H2.3A2.3 2.3 0 010 13.7V2.3A2.3 2.3 0 011.46.16c.11-.1.27-.16.43-.16H13.7c.34 0 .65.04.94.17.28.12.5.31.69.5.48.48.67 1.06.67 1.63v11.8c0 .18-.06.33-.16.44z" fill="#2D3440"/></g><defs><clipPath id="clip0_1244:350"><path fill="#fff" d="M0 0h16v16H0z"/></clipPath></defs></svg>