<svg width="16" height="16" viewBox="0 0 16 16" fill="none" xmlns="http://www.w3.org/2000/svg">
<g clip-path="url(#clip0_576:2286)">
<path fill-rule="evenodd" clip-rule="evenodd" d="M2.2998 1.33333C2.29856 1.33334 2.29733 1.33334 2.29609 1.33334C2.04075 1.33334 1.79587 1.43478 1.61532 1.61533C1.43477 1.79588 1.33333 2.04076 1.33333 2.2961V13.702C1.33333 13.9574 1.43477 14.2023 1.61532 14.3828C1.79587 14.5634 2.04075 14.6648 2.29609 14.6648H13.702C13.9574 14.6648 14.2022 14.5634 14.3828 14.3828C14.5633 14.2023 14.6648 13.9574 14.6648 13.702C14.6648 13.6907 14.6651 13.6793 14.6656 13.6681V2.29609C14.6656 2.04757 14.5908 1.82251 14.3836 1.61532C14.2281 1.45981 14.1553 1.41144 14.0976 1.38594C14.0431 1.36186 13.9446 1.33333 13.7029 1.33333H2.2998ZM15.8385 14.5433C15.7241 14.8337 15.5506 15.1006 15.3256 15.3256C14.895 15.7562 14.311 15.9981 13.702 15.9981H2.29609C1.68713 15.9981 1.10311 15.7562 0.672508 15.3256C0.241908 14.895 0 14.311 0 13.702V2.2961C0 1.68714 0.241908 1.10312 0.672508 0.672518C0.898406 0.446621 1.16653 0.272654 1.45832 0.158303C1.57458 0.0595657 1.72515 0 1.88963 0H13.7029C14.0403 0 14.3458 0.0379078 14.6365 0.16636C14.924 0.293391 15.1376 0.483641 15.3265 0.672511C15.808 1.15407 15.999 1.72989 15.999 2.29609V14.1094C15.999 14.2751 15.9385 14.4267 15.8385 14.5433Z" fill="#FCFCFC"/>
</g>
<defs>
<clipPath id="clip0_576:2286">
<rect width="16" height="16" fill="white"/>
</clipPath>
</defs>
</svg>
