<svg width="24" height="24" fill="none" xmlns="http://www.w3.org/2000/svg"><path fill-rule="evenodd" clip-rule="evenodd" d="M24 12a12 12 0 11-24 0 12 12 0 0124 0zm-9.53-5.96C13.83 6 13.63 6 12 6c-1.63 0-1.83 0-2.47.04-.64.03-1.08.13-1.46.28-.4.15-.76.38-1.06.69-.3.3-.54.66-.7 1.06-.14.38-.24.82-.27 1.46C6 10.17 6 10.37 6 12c0 1.63 0 1.83.04 2.47.03.64.13 1.08.28 1.46.15.4.38.76.69 1.06.3.3.66.54 1.06.7.38.14.82.24 1.46.27.64.03.84.04 2.47.04 1.63 0 1.83 0 2.47-.04a4.43 4.43 0 001.46-.28c.4-.15.76-.38 1.06-.69.3-.3.54-.66.7-1.06.14-.38.24-.82.27-1.46.03-.64.04-.84.04-2.47 0-1.63 0-1.83-.04-2.47a4.43 4.43 0 00-.28-1.46c-.15-.4-.38-.76-.69-1.06a2.93 2.93 0 00-1.06-.7 4.42 4.42 0 00-1.46-.27zm-4.6 3.84a3 3 0 114.25 4.24 3 3 0 01-4.24-4.24zm5.81-1.56a.75.75 0 11-1.06 1.06.75.75 0 011.06-1.06zm-2.4 2.4a1.8 1.8 0 10-2.55 2.55 1.8 1.8 0 002.54-2.54z" fill="#FCFCFC"/></svg>