<svg width="32" height="32" fill="none" xmlns="http://www.w3.org/2000/svg"><g clip-path="url(#clip0)"><circle cx="16" cy="16" r="16" fill="#E84D37"/><path d="M15.97 8.5c-1.13 0-2.24.28-3.21.81a6.26 6.26 0 00-2.36 2.22 5.81 5.81 0 00-.01 6.06c-.4.05-.76.2-1.06.44a2 2 0 00-.65.9 1.89 1.89 0 00.51 2.04 2.23 2.23 0 002.16.48c.38-.11.7-.33.96-.61.25-.28.41-.63.47-1l.24.13c.11.66.47 1.26 1.01 1.7a3.1 3.1 0 003.87 0c.54-.44.9-1.04 1.01-1.7l.25-.13c.05.37.22.72.47 1 .25.29.58.5.95.61a2.23 2.23 0 002.16-.48 1.89 1.89 0 00.5-2.04 2 2 0 00-.64-.9c-.3-.24-.67-.4-1.06-.44a5.81 5.81 0 00-.02-6.06 6.26 6.26 0 00-2.35-2.22 6.72 6.72 0 00-3.2-.8zm0-1.5c1.26 0 2.5.28 3.63.82a7.91 7.91 0 012.84 2.28 7.17 7.17 0 011.16 6.77 3.34 3.34 0 01.69 4.78 3.87 3.87 0 01-5.03.86 4.61 4.61 0 01-3.3 1.33 4.83 4.83 0 01-3.31-1.33c-.8.47-1.75.64-2.67.47A3.72 3.72 0 017.7 21.6a3.35 3.35 0 01.63-4.73 7.17 7.17 0 011.16-6.77 7.91 7.91 0 012.84-2.28A8.4 8.4 0 0115.97 7z" fill="#fff"/><path d="M10.69 23.92a4.8 4.8 0 001.82-.36l.26.18-.12.1.88.85.38-.36.48.15-.53.5.88.85.89-.84-.35-.33a6 6 0 001.34 0l-.35.33.89.84.88-.84-.53-.5.48-.16.38.36.9-.84-.11-.1.27-.2c.57.24 1.2.36 1.82.37h.13a.7.7 0 01-.03.34L16.7 36.52l-.01.05-.03.04-.05.09-.02.02a.77.77 0 01-.1.1l-.02.02-.08.06-.04.02a.8.8 0 01-.1.05h-.03l-.09.02h-.03a.76.76 0 01-.26 0h-.04l-.09-.02h-.04a.93.93 0 01-.1-.05l-.03-.02a.5.5 0 01-.09-.06l-.03-.02a.96.96 0 01-.09-.1l-.02-.02a.7.7 0 01-.05-.1l-.04-.08-4.64-12.26a.68.68 0 01-.04-.35h.14zm3.18 3.35l.89.84.87-.84-.88-.84-.88.84zm2.97 1.14l-.88-.84-.89.84.89.84.88-.84zm-1.77 2.28l.89.84.88-.84-.88-.84-.89.84zm.89-5.4l-.89.84.89.83.88-.84-.88-.83zm.32 1.98l.88.84.9-.84-.9-.84-.88.84zm3.39-3.03l-.09-.09-.89.84.51.47.47-1.22zm-.63 1.68l-.66-.63-.88.84.87.83.4-.38.27-.66zm-.64 1.69l-.03-.03-.88.84.44.43.47-1.24zm-.95 2.52l.32-.86-.6-.56-.88.83.87.86.29-.27zm-.78 2.06l.42-1.12-.8.76.38.36zm-.7 1.84l.53-1.4-.53-.5-.52.5.53 1.4zm-.7-1.85l.36-.35-.77-.73.42 1.08zm-.78-2.02l.26.24.88-.85-.88-.84-.59.55.33.9zm-.5-1.34l.43-.41-.89-.84v.01l.46 1.24zm-.83-2.21l.38.35.89-.84-.89-.83-.64.61.26.7zm-.43-1.15l.5-.47-.9-.84-.07.07.47 1.24z" fill="#fff"/></g><defs><clipPath id="clip0"><rect width="32" height="32" rx="16" fill="#fff"/></clipPath></defs></svg>